<svg xmlns="http://www.w3.org/2000/svg" viewBox="0 0 257.37 40.34"><defs><style>.cls-1{fill:#33a1fd;}</style></defs><title>Asset 1</title><g id="Layer_2" data-name="Layer 2"><g id="Layer_1-2" data-name="Layer 1"><path d="M19,9.57V39.91H10.65V9.57H0V2.31H29.69V9.57Z"/><path d="M50.24,18.07a6.09,6.09,0,0,0-5.38,2.56,11.62,11.62,0,0,0-1.78,6.75V39.91H35V11h8.06v3.82a13.52,13.52,0,0,1,3.9-3,10.59,10.59,0,0,1,4.76-1.29l.06,7.58Z"/><path d="M81.43,39.91H73.85v-3.5a9.5,9.5,0,0,1-7.72,3.93,11.52,11.52,0,0,1-7.72-2.66,8.87,8.87,0,0,1-3.12-7.1,7.5,7.5,0,0,1,3.23-6.64q3.23-2.21,8.82-2.21h6v-.16c0-3.08-1.64-4.63-4.9-4.63a13.15,13.15,0,0,0-4.44.84,14.13,14.13,0,0,0-4,2.07l-3.6-5.22a21.58,21.58,0,0,1,13-4.14,13.5,13.5,0,0,1,8.61,2.63q3.33,2.64,3.33,8.34Zm-8.12-11V27.49h-5q-4.85,0-4.84,3a2.76,2.76,0,0,0,1.15,2.39,5.58,5.58,0,0,0,3.31.84,5.87,5.87,0,0,0,3.79-1.32A4.29,4.29,0,0,0,73.31,28.88Z"/><path d="M96.87,23.77V39.91H88.8V11h8.07V14.2a11.31,11.31,0,0,1,8.23-3.71,10.18,10.18,0,0,1,7.67,3.23,11.92,11.92,0,0,1,3.09,8.6V39.91h-8.07V23.56q0-6.68-4.89-6.67a5.86,5.86,0,0,0-4.23,1.75A6.83,6.83,0,0,0,96.87,23.77Z"/><path d="M145,30.9a8.43,8.43,0,0,1-3.15,6.86,12.19,12.19,0,0,1-8,2.58,21.12,21.12,0,0,1-6.72-1.16,19.87,19.87,0,0,1-6.29-3.41l3.55-5.06a15.46,15.46,0,0,0,9.62,3.5,4.4,4.4,0,0,0,2.48-.62,1.89,1.89,0,0,0,.91-1.64,2.36,2.36,0,0,0-1.26-1.88,14.22,14.22,0,0,0-3.66-1.62q-2.38-.75-3.66-1.29a20.66,20.66,0,0,1-2.87-1.56,6.67,6.67,0,0,1-3.28-6.05A7.91,7.91,0,0,1,125.86,13a13.09,13.09,0,0,1,8.34-2.53,18.22,18.22,0,0,1,10.22,3.44l-3,5.38a13.22,13.22,0,0,0-7.51-2.58c-2.49,0-3.73.68-3.73,2a2,2,0,0,0,1.18,1.78,23.8,23.8,0,0,0,3.93,1.5q2.73.87,3.9,1.32A20.07,20.07,0,0,1,142,24.8C144,26,145,28.05,145,30.9Z"/><path class="cls-1" d="M177.77,2.31V9.68H160.34V17.8h16.57v7.37H160.34V39.91H152V2.31Z"/><path class="cls-1" d="M192.13,39.91h-8.07V11h8.07Z"/><path class="cls-1" d="M207.83,39.91h-8.06V0h8.06Z"/><path class="cls-1" d="M240.54,35.72a16.2,16.2,0,0,1-11.49,4.62,15.23,15.23,0,0,1-10.89-4.06q-4.31-4.06-4.3-10.89t4.38-10.87a14.81,14.81,0,0,1,10.36-4,15,15,0,0,1,10.14,3.6A12.43,12.43,0,0,1,242.9,24v4.3H221.82a5.8,5.8,0,0,0,2.47,3.88,8,8,0,0,0,4.74,1.5,9.29,9.29,0,0,0,7-2.85Zm-7.75-17.16a6.06,6.06,0,0,0-4.06-1.4,7.22,7.22,0,0,0-4.38,1.45A5.58,5.58,0,0,0,222,22.54h12.7A5.74,5.74,0,0,0,232.79,18.56Z"/><path d="M249.28,39a4.81,4.81,0,1,1,3.36,1.37A4.55,4.55,0,0,1,249.28,39Z"/></g></g></svg>